<svg id="Camada_1" data-name="Camada 1" xmlns="http://www.w3.org/2000/svg" viewBox="0 0 1920 1080"><title>logo</title><path d="M588.34,360,805.67,143.08l486,485.66L1073,845.35Z"/><path d="M1322.75,245h309c.44,7.73,1.16,14.47,1.16,21.2q.07,321.35,0,642.68c0,27.27,0,27.45-27.21,27.46q-131.46.08-262.92-.08h-20.1Z"/><path d="M120,934.74V625.45H809.47c.43,6.31,1.28,13,1.29,19.67.08,89-.34,178.1.39,267.14.14,17.45-3.85,24.43-22.95,24.38-216.36-.6-432.72-.38-649.07-.46C133.05,936.17,127,935.29,120,934.74Z"/></svg>