<svg id="Camada_1" data-name="Camada 1" xmlns="http://www.w3.org/2000/svg" viewBox="0 0 1920 1080"><defs><style>.cls-1{fill:#2cf52d;}.cls-2{fill:#fff;}</style></defs><title>logo</title><path class="cls-1" d="M212.29,435.81l80.88-80.73L474,535.81c-27,26.76-54.29,53.79-81.38,80.61Z"/><path class="cls-1" d="M485.59,393h115c.16,2.88.43,5.38.43,7.89q0,119.58,0,239.17c0,10.15,0,10.21-10.13,10.22q-48.92,0-97.84,0h-7.49Z"/><path class="cls-1" d="M38,649.69V534.59H294.58c.16,2.35.48,4.83.48,7.32,0,33.14-.12,66.28.15,99.41.05,6.5-1.43,9.1-8.54,9.08-80.52-.23-161-.15-241.55-.18C42.86,650.22,40.6,649.89,38,649.69Z"/><path class="cls-2" d="M721.46,650.86V391.44h39.4L873.54,580.81H852.92L963.76,391.44h39.4l.74,259.42h-46V463h9.2L873.54,621.58H851.82L756.07,463h11v187.9Z"/><path class="cls-2" d="M1157.08,653.45q-29.82,0-53.58-13.16a97.49,97.49,0,0,1-37.37-36.13q-13.64-23-13.63-52.25,0-30,13.63-52.63a98.75,98.75,0,0,1,37.19-35.76q23.57-13.15,53.76-13.16,30.56,0,54.32,13.16a97.19,97.19,0,0,1,37.19,35.76Q1262,521.89,1262,551.91q0,29.64-13.44,52.44a96.32,96.32,0,0,1-37.38,35.94Q1187.27,653.46,1157.08,653.45Zm0-39.28q16.93,0,30.2-7.6a53.19,53.19,0,0,0,20.8-21.87q7.55-14.25,7.55-32.79,0-18.9-7.55-32.8a53.84,53.84,0,0,0-20.8-21.5,62.41,62.41,0,0,0-59.66,0,55.09,55.09,0,0,0-21,21.5q-7.73,13.89-7.73,32.8,0,18.52,7.73,32.79a54.39,54.39,0,0,0,21,21.87A58.15,58.15,0,0,0,1157.08,614.17Z"/><path class="cls-2" d="M1389.43,653.45q-28.35,0-51-12.6a91,91,0,0,1-35.53-35.39q-12.9-22.8-12.89-53.55,0-30.39,12.89-53.37A90.59,90.59,0,0,1,1338.43,463q22.65-12.58,51-12.6,24.67,0,44.19,10.93t30.94,33.36q11.4,22.43,11.41,57.26,0,34.46-11,57.07t-30.38,33.54Q1415.22,653.45,1389.43,653.45Zm5.53-39.28a57.82,57.82,0,0,0,29.64-7.6,56.08,56.08,0,0,0,21-21.87q7.92-14.25,7.92-32.79,0-18.9-7.92-32.8a56.85,56.85,0,0,0-21-21.5,61.67,61.67,0,0,0-59.28,0,56.7,56.7,0,0,0-21,21.5q-7.93,13.89-7.92,32.8,0,18.52,7.92,32.79a55.94,55.94,0,0,0,21,21.87A57.82,57.82,0,0,0,1395,614.17Zm60,36.69v-46.7l1.11-52.62-3.69-52.63v-123h46.4v275Z"/><path class="cls-2" d="M1618.11,653.45q-22.09,0-38.67-7.6t-25.59-21.12a53.82,53.82,0,0,1-9-30.58,57.71,57.71,0,0,1,7.91-30q7.92-13.33,26-21.12t47.87-7.78h57.07V566h-53.76q-23.21,0-31.48,7.6a24.78,24.78,0,0,0-8.29,19.08,23.32,23.32,0,0,0,9.94,19.64q9.95,7.43,27.62,7.41a59.5,59.5,0,0,0,30.38-7.78,45.82,45.82,0,0,0,19.7-23l7.37,27.79q-6.63,17.43-23.57,27T1618.11,653.45Zm61.86-2.59v-40.4l-2.21-8.15v-70q0-20.37-12.33-31.68t-37.38-11.3a102.59,102.59,0,0,0-32,5.18,84.72,84.72,0,0,0-27.25,14.46l-18-33.73a116,116,0,0,1,37.93-18.53,161.78,161.78,0,0,1,45.29-6.3q43.1,0,66.29,20.76t23.19,63.74v116Z"/><path class="cls-2" d="M1782.34,650.86v-275H1828v275Z"/></svg>